<svg id="Layer_1" data-name="Layer 1" xmlns="http://www.w3.org/2000/svg" xmlns:xlink="http://www.w3.org/1999/xlink" viewBox="0 0 400 300"><defs><linearGradient id="linear-gradient" x1="82.33" y1="223.97" x2="100.3" y2="192.49" gradientUnits="userSpaceOnUse"><stop offset="0" stop-color="#f15a24" stop-opacity="0"/><stop offset="1" stop-color="#f15a24"/></linearGradient><linearGradient id="linear-gradient-2" x1="160.95" y1="230" x2="221.41" y2="124.11" xlink:href="#linear-gradient"/></defs><title>#41-50</title><ellipse cx="196.24" cy="193.79" rx="140.96" ry="65.76" fill="#feca5c"/><path d="M119.74,204.91l-39,23.72s-15-6.91-15.41-15.9,0-3.43,0-3.43l35.4-8.72" fill="url(#linear-gradient)"/><path d="M171.44,255.17l136.45-77.26L167.66,130,68,187.53C74.32,191.38,165.23,251.16,171.44,255.17Z" opacity="0.68" fill="url(#linear-gradient-2)"/><path d="M124.13,199.42s20.55,14.84,29,13.19,3.83-2.44,20.89-2.76,30.89-.7,30.89-.7,12.45-8.65,21.39-10.56,26.65-2.91,30.12-3.41,11.83-6.39,11.83-6.39l39.61-10.88-7.7-8.17,12.45-14.13-9-34.84s-17.65-2.35-14.51-11.39-3.3-28.51-3.3-28.51l-8-10.21-9.25-3.13L253,53.5l-5.1-17.29L235,46.82,222.47,62.6,212,69.17l-10.13,9.66s-5.89-1.27-15.85.69-18.82,7.81-18.82,7.81l-12,18.36-.62,8.63a39.93,39.93,0,0,0-14.75,7.74c-7.62,6.15-7.67,8-9.9,14.83s-12.19,26.6-12.19,26.6Z" fill="#9f96ab"/><path d="M303.59,120.77s-15,12.16-22.4,13.66-23,1-37.76,7.54a75.14,75.14,0,0,1-28.65,6.21l-16,5.35s-14.94,3.16-20,3.79-11,7.56-20.22,5.46-16.7.94-18.74-2.46-8.13-7.84-9-15.63-1.39-9.63,0-13.05,9-9.57,9-9.57l14.85-9.38s-3.62,7.87-4.39,14a15.26,15.26,0,0,0,2.9,10.69s6.26,2.78,8.6,3.52,20.2-2.64,20.2-2.64L208.22,137s26.47-9.33,27.53-9.68,20.7-2.3,20.7-2.3l13.48-5.8,19.14-5.83Z" fill="#9dbe63"/><path d="M235,46.82c.15,1.61,2.15,18.8,2.15,18.8l-12-1L212,69.17l10.51-6.57Z" fill="#cbc7d1"/><path d="M144.63,102.67s2.91-6.57,4.24-7.24,4.33-.83,5.33,0,3,8.71,1,10.27-7.48,2.89-7.48,2.89" fill="#eeae81"/><path d="M214.78,148.18s7.95-.79,9.79,0,12.61,21.34,12.61,21.34l-9.74,22.11-1.11,7-9.57,3.61Z" fill="#9e95aa"/><polygon points="158.55 162.78 165.44 176.32 167.05 193.79 170.51 206.18 172.35 181.27 176.77 157.84 169.82 161.43 158.55 162.78" fill="#7d7187"/><path d="M194.86,154.34l1.38,18.39s3.6,9.48,3.76,9.28-1.22,27.29-1.22,27.29l6.16-.16s-.5-47.29,0-48.21,9.84-12.75,9.84-12.75Z" fill="#7d7187"/><polygon points="160.79 177.67 144.87 183.09 150.33 212.77 160.79 177.67" fill="#7d7187"/><polygon points="117.72 163.49 134.44 176.32 134.44 198.74 137.71 207.86 124.13 199.42 117.72 163.49" fill="#bab1c4"/><polygon points="259.23 137.25 266.38 160.77 266.38 172.73 268.28 188.79 277.1 186.37 286.01 183.12 277.72 176.32 279.15 165.27 264.9 136.35 259.23 137.25" fill="#7d7187"/><path d="M234.43,145.21c-.24.07-3.27,25.71-3.27,25.71l1.63,26.6,17.76-2.13-5.07-19.07,2.69-10.48.3-12.24,3.88-11.36,1.65-3.85Z" fill="#7d7187"/><path d="M168.95,106.3l1.87,9L175.16,128l-7.5,12.59,10.76-1.69L190.55,132l-5.4-10.36,8.52-9.85,4.92-6.57S174.17,107.29,168.95,106.3Z" fill="#7d7187"/><polygon points="208.22 137 215.18 128.03 225.98 120.36 235.75 127.32 217.96 133.93 208.22 137" fill="#7d7187"/><path d="M226,100.13c.4-.07-2.06,11.66-2.06,11.66s10.13,3,10.39,3.49,2.87,3.92,2.87,3.92l5.4-12.87,8.32-6.2,4.39-9Z" fill="#7d7187"/><path d="M266.2,88.5,265,102.66l3.51,3.67-3.51,15,7.67-2.16,6.36-9.5V97.93s4-6.3,4.26-7.78,0-8.47,0-8.47Z" fill="#7d7187"/><polyline points="167.16 87.33 155.18 105.69 154.56 114.32 151.03 122.92 150.53 131.57 153.19 137.41 159.43 123.87 164.18 111.79 167.16 105.88" fill="#bab1c4"/><path d="M277.77,70.66,270.82,78l-14.74,6.61-23.66,3.51h-13l-14.91-2.8V76.29s-18.66,4.22-22.5,4.23-14.83,6.81-14.83,6.81l-5.34,12.17s4.12,7.39,7.13,6.79,29.64-1.08,29.64-1.08l36-6.7,35.94-12.79,15.2-4.86S288.17,76.32,277.77,70.66Z" fill="#9dbe63"/><rect x="156.77" y="94.61" width="2" height="82.43" rx="1" ry="1" transform="translate(-14.42 18.82) rotate(-6.53)" fill="#3c3f2e"/><circle cx="153.18" cy="92.99" r="2.85" fill="#3c3f2e"/><polygon points="134.44 176.32 127.4 157.84 129.94 147.83 123.9 149.49 117.72 163.49 134.44 176.32" fill="#bab1c4"/><path d="M147.86,169.52s.35,3.86,2.77,3.74,5.47-2.76,8.35-1.46,2.31,5.2,1.83,5.88-12.07,5.17-15.92,5.42-5.23-1-5.52-2.31.3-10.56.3-10.56" fill="#ec7f00"/><path d="M105.35,195.39s1,3.3,3.85,3.16,6.26-2.44,9.7-.89,1.42,6.44.84,7.25-17,7.53-21.62,7.83-6.24-1.17-6.58-2.76.36-12.61.36-12.61" fill="#ec7f00"/><path d="M124.63,75.79c.56.08.08,13.1-3.41,14.18s-6.6-3.12-6.6-3.12S119.19,75,124.63,75.79Z" fill="#eeae81"/><path d="M125.72,71.49c-1.31-1.29-3.56-1.11-5.16-.62l-.12,0c0-.08,0-.15-.06-.23a4.22,4.22,0,0,0-4.06-2.51,6,6,0,0,0-5.46,3.51,4.85,4.85,0,0,0-4.87,2,5.5,5.5,0,0,0-.78,4.61l0,0a23,23,0,0,0,5,8.36A7.55,7.55,0,0,0,115.44,89a5.64,5.64,0,0,0,3.84-1.14c1.26-1.13,1.44-3.26,1.85-4.81.15-.57.65-5.1.91-5.21A18,18,0,0,0,123.7,77a5.09,5.09,0,0,0,1.39-.9,3.3,3.3,0,0,0,1.19-1.42,1.62,1.62,0,0,0,.07-.62A2.6,2.6,0,0,0,125.72,71.49Z" fill="#3a3a3a"/><path d="M121.79,82.33s.3-2.63-1.42-2.18-.87,3.76.64,4.66" fill="#eeae81"/><path d="M121.16,128.31s10.81-2,14.53-2.61,8.94,3.29,10.37,6.31,3.24,36.67,3.24,36.67-5,6-10.65,4.4l-6-25.51s-14.61,8.3-22.79,5.74-2.29-27.07-2.29-27.07" fill="#3c3f2e"/><path d="M141.14,123.87s9.24-12.16,9.09-14.07-3.47-6.8-5.6-7.13S134.44,116,134.44,116" fill="#13b3dd"/><path d="M94.73,140.52s-1.27,29.91-1.67,33.1S91.71,200,91.71,200s4.62,7.3,14-.74L115.73,132S97.38,131.55,94.73,140.52Z" fill="#3c3f2e"/><path d="M132.64,99.37c-1.2-4.41-13.36-11.49-18-12.53s-13,4.74-13.89,6.28l1.52,40.35a1.27,1.27,0,0,1,1.94-.81c3.66,2.34,17.3,6.92,20.51,2l-.55-21.8s1.7.47,4.52,6.95,9.64,7.35,12.48,4S132.64,99.37,132.64,99.37Z" fill="#68e1fd"/><path d="M115.87,95.85s-17.62-6.38-25.7-4.24-19.53,33.76-13.61,46.22,36.33,8.84,36.35,5.23S115.87,95.85,115.87,95.85Z" fill="#68e1fd"/><path d="M106.23,92.63c-4.41,2.39-5.65,8-6.28,12.59-.86,6.25-1.24,12.55-1.71,18.84-.37,5-2.46,12.17-.05,16.84.66,1.27,4.48,5.06,6,4.87,5-.59,8.56-1.83,8.57-3.07,0-3.61,3-47.22,3-47.22S111.5,93.95,106.23,92.63Z" fill="#3a3a3a" opacity="0.46"/><path d="M106.68,88.83s-1.69-3.7,1.73-4.35,10.85,1,12.75,2.18,2.95,3.74,2.71,4.51S106.68,88.83,106.68,88.83Z" fill="#1e869e"/><path d="M163,172.73c1.14.47,3.31,12.94,3.31,12.94s1.19,9.7,1.36,10.32,2.78,13.31,2.78,13.31-11.45,1.78-11.6,1.83-8.52,1.64-8.52,1.64l3.86-17.38,4.66-6.6Z" fill="#bab1c4"/><path d="M184.5,155.45c.33.86,3.08,33.34,3.08,33.34V209.3h11.21L200,182l-4.46-18.52-.69-9.15Z" fill="#bab1c4"/><polygon points="224.57 148.18 224.57 169.52 216.76 202.2 232.79 197.52 231.16 170.92 234.43 145.22 224.57 148.18" fill="#bab1c4"/><polygon points="259.23 137.25 259.23 159.67 259.23 194.23 268.28 188.79 266.38 160.77 259.23 137.25" fill="#bab1c4"/><polygon points="198.59 105.22 185.15 121.64 190.55 132.01 200 118.61 211.96 103.86 198.59 105.22" fill="#bab1c4"/><polygon points="219.62 101.73 218.28 117.93 215.18 128.03 225.98 120.36 223.92 111.79 225.98 100.13 219.62 101.73" fill="#bab1c4"/><path d="M259.23,89.77l-3.94,15.42,2,5.68L256.45,125l8.5-3.66,3.51-15s-3.73-1.85-3.51-3.67S266.2,88.5,266.2,88.5Z" fill="#bab1c4"/><polygon points="225.16 64.62 215.18 73.92 204.49 85.34 204.49 76.29 211.96 69.17 225.16 64.62" fill="#bab1c4"/><polygon points="204.49 85.34 217.62 87.81 229.63 78.59 237.18 65.62 225.16 64.62 204.49 85.34" fill="#7d7187"/><polygon points="241.56 43.5 242.58 57.36 254 62.52 263.75 69.21 277.77 70.66 268.52 67.62 253 53.99 247.9 37.2 241.56 43.5" fill="#7d7187"/><path d="M229.63,30s4.71-1.79,12.28,1.54S256.48,30,256.48,30l.69,14.16s-11.47,2.18-15.6-1.49S230.39,44,230.39,44Z" fill="#68e1fd"/><rect x="229.63" y="30.04" width="1.53" height="38.03" fill="#3c3f2e"/><path d="M180.37,90.42V64.83h-5V90.5A4.79,4.79,0,0,0,180.37,90.42Z" fill="#a46900"/><path d="M178.15,64.83V91.17a3.84,3.84,0,0,0,2.22-.75V64.83Z" fill="#653916"/><path d="M178.33,33.44s-14.77,9.48-13.83,12.74,7.88,2.87,7.88,2.87-9.71,2-10,8.07c-.18,4.36,10.88,5.26,10.88,5.26s-13.17,4.71-11.22,9.53,28.42,3.88,29.24,1.41-.94-8.82-8.94-10.94c0,0,10.14.08,10.16-4.87,0-4.51-11.1-8.46-11.1-8.46s8.94,1.1,9.65-1.37S178.33,33.44,178.33,33.44Z" fill="#26721e"/><path d="M192.54,57.43c0-4.51-11.1-8.46-11.1-8.46s8.94,1.1,9.65-1.37c.61-2.14-9.41-11.26-12.1-13.65,1,2.82,3,5.47,4.61,7.87.86,1.26,2,2.81.54,4.07-1.09,1-2.66.71-3.9,1.27-.61.27-1,.22-.8,1.09a2.87,2.87,0,0,0,.86,1.12,14.55,14.55,0,0,0,2.59,1.7c2.05,1.23,6.88,3.74,4.7,6.8-.88,1.24-2.45,1.43-3.82,1.71-1.12.23-2.47.37-2.63,1.75-.17,1.58,1.4,2.83,2.46,3.73,1.79,1.51,3.36,3,3.41,5.53a8,8,0,0,1-1.21,4.27c3.09-.36,5.28-.93,5.51-1.61.82-2.47-.94-8.82-8.94-10.94C182.38,62.3,192.52,62.38,192.54,57.43Z" fill="#145b0a"/><path d="M175.33,75.28V77.4a42.93,42.93,0,0,0,5-2.12Z" fill="#653916"/><path d="M285.7,129.49v-19H282v19.09A3.56,3.56,0,0,0,285.7,129.49Z" fill="#a46900"/><path d="M284,110.46V130a2.86,2.86,0,0,0,1.65-.56v-19Z" fill="#653916"/><path d="M284.18,87.12s-11,7-10.28,9.47,5.86,2.13,5.86,2.13-7.22,1.46-7.41,6c-.14,3.24,8.09,3.91,8.09,3.91s-9.79,3.5-8.34,7.09,21.13,2.89,21.74,1-.7-6.56-6.65-8.13c0,0,7.54.06,7.56-3.62,0-3.35-8.26-6.29-8.26-6.29s6.65.82,7.17-1S284.18,87.12,284.18,87.12Z" fill="#26721e"/><path d="M294.75,105c0-3.35-8.26-6.29-8.26-6.29s6.65.82,7.17-1c.45-1.59-7-8.37-9-10.15a25.69,25.69,0,0,0,3.43,5.85c.64.93,1.46,2.09.4,3-.81.72-2,.53-2.9.94-.45.2-.73.16-.59.81a2.14,2.14,0,0,0,.64.84,10.82,10.82,0,0,0,1.92,1.26c1.53.91,5.11,2.78,3.5,5.05-.65.92-1.82,1.07-2.84,1.27-.83.17-1.84.28-2,1.3-.13,1.17,1,2.1,1.83,2.77,1.33,1.12,2.5,2.25,2.53,4.11a6,6,0,0,1-.9,3.18c2.3-.27,3.93-.69,4.1-1.2.61-1.84-.7-6.56-6.65-8.13C287.19,108.58,294.73,108.64,294.75,105Z" fill="#145b0a"/><path d="M282,118.23v1.57a31.92,31.92,0,0,0,3.74-1.57Z" fill="#653916"/><path d="M115.73,95.48s6-3.57,12-1.68c0,0-1.4-3.48-4-3.65s-10.72-.5-13.61,3.78Z" fill="#3c3f2e"/><path d="M113.46,130.29s5.18,2.46,11.36-2.26l.56,7.79-12.6,6.87Z" fill="#3c3f2e"/></svg>