<svg xmlns="http://www.w3.org/2000/svg" xmlns:xlink="http://www.w3.org/1999/xlink" viewBox="0 0 400 300"><defs><linearGradient id="linear-gradient" x1="156.94" y1="117.87" x2="132.45" y2="151.48" gradientUnits="userSpaceOnUse"><stop offset="0.01" stop-color="#f7931e"/><stop offset="1" stop-color="#fff"/></linearGradient><linearGradient id="linear-gradient-2" x1="209.47" y1="143.17" x2="184.98" y2="176.79" xlink:href="#linear-gradient"/><linearGradient id="linear-gradient-3" x1="251.27" y1="170.92" x2="226.78" y2="204.54" xlink:href="#linear-gradient"/></defs><title>101-110</title><g style="isolation:isolate"><g id="Layer_2" data-name="Layer 2"><polygon points="225.6 282.44 336.43 217.61 336.43 184.96 225.43 249.04 225.6 282.44" fill="#f4cc25"/><path d="M74.62,161.59v32.9s151.25,88.71,151,87.95,0-33.4,0-33.4Z" fill="#edcd32"/><polygon points="74.62 161.59 225.43 249.04 336.43 184.96 187.04 97.3 74.62 161.59" fill="#f4dd53"/><polygon points="312.35 170.83 328.61 168.02 310.49 199.94 312.35 170.83" fill="#f4cc25"/><polygon points="310.49 199.94 336.43 184.96 323.46 175.88 310.49 199.94" fill="#e2b80a"/><path d="M99.23,163.07l53.34-31.77a1.5,1.5,0,0,0-1.51-2.59L97.72,160.48a1.5,1.5,0,0,0,1.51,2.59Z" fill="#f7931e"/><path d="M109.27,169.88,149.7,145.8a1.5,1.5,0,0,0-1.51-2.59l-40.43,24.08a1.5,1.5,0,0,0,1.51,2.59Z" fill="#f7931e"/><path d="M226.84,227,290,189.45a1.5,1.5,0,0,0-1.51-2.59l-63.13,37.59a1.5,1.5,0,0,0,1.51,2.59Z" fill="#f7931e"/><path d="M213.13,224.17l68.36-40.46,9.91-5.87a1.5,1.5,0,0,0-1.51-2.59l-68.36,40.46-9.91,5.87a1.5,1.5,0,0,0,1.51,2.59Z" fill="#f7931e"/><polygon points="156.4 161.72 213.16 195.73 254.07 172.66 195.02 139.07 156.4 161.72" fill="#fff"/><path d="M225.09,155v0c-1.09,0-2.62,1.16-3.62,1.65L218.72,158s-1.83,6.8-2.86,9.28-4.79,7.92-3.49,10a6.07,6.07,0,0,0,8.09,1.62c3.44-1.88,3.35-8.18,4.6-10.63,1-2,.55-6.33.55-7.26A23.83,23.83,0,0,0,225.09,155Z" fill="#181816"/><path d="M196.78,142.72v0c-1.09,0-2.62,1.16-3.62,1.65l-2.74,1.34s-.95,7.39-2.86,9.28-9.22,5.86-7.91,7.89a5.88,5.88,0,0,0,7.91,1.82c3.44-1.88,5.7-5.76,8.16-6.75,2.11-.84,1.22-6.33,1.3-8.17A26,26,0,0,0,196.78,142.72Z" fill="#181816"/><path d="M191.85,73.54s-4.69,25-4.27,38.71.66,30.5,1.71,37.93c0,0,9.09,1.27,12.17-1.46,0,0,.91-48.05,1-47.78,1.39,6.32,7.92,38.71,8.62,40.83s4,19.19,4,19.19A16.46,16.46,0,0,0,228,158.78s-1.13-24.59-3.24-31.5-9.44-50.35-13-53.75" fill="#68e1fd"/><path d="M191.85,73.54s-4.69,25-4.27,38.71.66,30.5,1.71,37.93c0,0,9.09,1.27,12.17-1.46,0,0,.91-48.05,1-47.78,1.39,6.32,7.92,38.71,8.62,40.83s4,19.19,4,19.19A16.46,16.46,0,0,0,228,158.78s-1.13-24.59-3.24-31.5-9.44-50.35-13-53.75" fill="#181816" opacity="0.67"/><path d="M211.54,75.55s8-23.37,4.79-28.72-16.27-9.56-22.51-9-2.24,37.46-1.25,37.73S202.77,82.14,211.54,75.55Z" fill="#f7931e"/><path d="M203.33,39.27s1.51-4.55,6-3.25,36.4,4.09,43.35,9-34.17,7.16-34.17,7.16Z" fill="#68e1fd"/><path d="M216.32,46.82s35.82-11.52,44.77,5.32,5.27,43.69,17.9,49c0,0-35.62-11.81-47.39-25.55,0,0,8-10.2-9.69-18.65" fill="#68e1fd"/><path d="M216.32,46.82s35.82-11.52,44.77,5.32,5.27,43.69,17.9,49c0,0-35.62-11.81-47.39-25.55,0,0,8-10.2-9.69-18.65" fill="#181816" opacity="0.38"/><path d="M214.2,44.42l-9.75-4Q201.79,53.23,198.94,66l13.62,2.39s8.11-4.46,9.36-11.54S214.56,44.75,214.2,44.42Z" fill="#f7931e"/><path d="M221.34,52.14s14.24,19.07,10.27,23.4-16.87,5.81-16.87,5.81-5-7-3-7.82,7.43-3.33,7.43-3.33l-4.64-4.71" fill="#f7931e"/><path d="M194.53,51.88s-1.3-12.77-1.3-13.89a30.45,30.45,0,0,0-10.44,5.34,34.41,34.41,0,0,0-4.41,4.08,11,11,0,0,0-2.27,3,8,8,0,0,0-.11,4.14,32.14,32.14,0,0,0,3.2,9.09A48.4,48.4,0,0,0,185,73c.72.88,3,4.13,4.51,3.61,3-1,4.26-4.56,4.26-4.56s-1.39-2.73-2.89-6.12c-.89-2-4.88-6.55-5.43-9.66a15.65,15.65,0,0,1,1.28-1.52C188.76,52.81,192.06,53.17,194.53,51.88Z" fill="#f7931e"/><path d="M195.67,38.71l2,10.05,2.78-3.24,2.1,4,5.64-7.65S199.48,37.88,195.67,38.71Z" fill="#ed6b00"/><path d="M206.52,34.22c-1.46,1.62-4.28.89-6.13.47-2.25-.51-4.83-1.87-4.63-4.55,0-.4-.6-.4-.63,0-.21,2.79,2.33,4.47,4.74,5.08,2.14.54,5.39,1.34,7.09-.55C207.23,34.37,206.79,33.92,206.52,34.22Z" fill="#009245"/><path d="M194.53,28.45s0,13.65,5,14.54c5.5,1,8.6-5.27,8.6-5.27s.71-12.06-4.76-13.12S194.69,26.7,194.53,28.45Z" fill="#fbb5ad"/><path d="M198.74,37.63a.94.94,0,0,1-.37-.06,38.2,38.2,0,0,1,.52-3.79.36.36,0,0,0-.7-.12,38.2,38.2,0,0,0-.54,4.06.38.38,0,0,0,.2.38,1.78,1.78,0,0,0,1,.24C199.26,38.34,199.2,37.63,198.74,37.63Z" fill="#56403d"/><path d="M201,37.93A2,2,0,0,1,198.49,39c-.29-.1-.41.36-.13.46a2.46,2.46,0,0,0,3.09-1.28C201.59,37.9,201.18,37.66,201,37.93Z" fill="#56403d"/><path d="M200.42,36a.36.36,0,0,0,0,.71A.36.36,0,0,0,200.42,36Z" fill="#56403d"/><path d="M196,35a.36.36,0,0,0,0,.71A.36.36,0,0,0,196,35Z" fill="#56403d"/><path d="M204.25,36.36s1.33-5.24,2.79-3.51-2.37,5.49-2.37,5.49" fill="#fbb5ad"/><path d="M205.58,22.9s4.89.53,6.31,4.42S209.66,38.95,207,40.16l3.17-6.79-.16-4.63Z" fill="#5c2e2e"/><path d="M211.81,29.06c-.4-2.73-2.2-4-4.57-5.44l-.59-.32a3.91,3.91,0,0,0,1.06-1.37.36.36,0,0,0-.31-.54,2.23,2.23,0,0,0-1.61.79,5.3,5.3,0,0,0-1.1-1.5.36.36,0,0,0-.6.16,1.93,1.93,0,0,0,.09,1.64,10.39,10.39,0,0,0-7.21,1.1,6,6,0,0,0-2,1.9,3.56,3.56,0,0,0-1.94.35,3.26,3.26,0,0,0-1.84,3.49c.36,1.64,2.1,2.18,3.57,1.92a4.53,4.53,0,0,0,2.06-1c-.45.75-.67,1.7.78,2,2.5.57,3.69-.92,3.85.33.13,1,1.54,1.59,2.56,1.61.07.16.26.57.49,1.14a3,3,0,0,1,1.57-.09.38.38,0,0,1,.61.06c.87,1.49.67,3.11.33,4.83A13.75,13.75,0,0,0,210.32,36,12.28,12.28,0,0,0,211.81,29.06Zm-7.11-7.31.1.15a.36.36,0,0,0,0,.11c0,.12.09.23.13.34A1.31,1.31,0,0,1,204.7,21.74Z" fill="#5c2e2e"/><polygon points="198.37 47.9 199.84 50.78 201.91 48.4 200.42 45.53 198.37 47.9" fill="#723100"/><path d="M199.84,50.78s2.91,12.36,13.69,13.59l3.17,3.32-4.82,3S196.23,65.59,199.84,50.78Z" fill="#723100"/><polyline points="74.62 176.55 224.84 263.15 336.43 201.34" fill="none" stroke="#f7931e" stroke-miterlimit="10" opacity="0.56"/><polyline points="75.71 187.91 225.92 274.51 337.51 212.69" fill="none" stroke="#f7931e" stroke-miterlimit="10" opacity="0.56"/><path d="M193.57,72.69s1.93,2.67,1.74,3.85-2.55,0-2.55,0l-2.09,6.23a4.51,4.51,0,0,1-1-2.77,21.3,21.3,0,0,1,.39-4.25Z" fill="#fbb5ad"/><path d="M212,74.7s-5.26,2.56-4.16,3.8S212,77.7,212,77.7s1.86,8.45,4.14,8.49c0,0,1.77-3,.65-5.89S212,74.7,212,74.7Z" fill="#fbb5ad"/><path d="M163.6,140.1l-13.81-8.57-49.46,32.68c1.16.79,5.83,3.46,12.65,7.28C129.54,160.58,147.15,151.22,163.6,140.1Z" fill="url(#linear-gradient)" style="mix-blend-mode:multiply"/><path d="M222.17,166.76,194.9,149.84c-16.41,11.14-34,20.49-50.58,31.36,9.66,5.4,23.28,12.92,37.39,20.71,5.42-3.35,11.16-6.27,16.57-9.52,7.46-4.48,15.16-8.71,22.53-13.41C221.79,175,221.74,170.84,222.17,166.76Z" fill="url(#linear-gradient-2)" style="mix-blend-mode:multiply"/><path d="M259.24,188.91,249,182.58c-9.83,7.5-20.84,13.31-31.42,19.69-5.71,3.45-11.84,6.53-17.61,10.09l9.24,5.1C226.17,208.37,243.89,200.62,259.24,188.91Z" fill="url(#linear-gradient-3)" style="mix-blend-mode:multiply"/><polyline points="143.3 121.73 143.3 136.61 167.38 136.61 167.38 121.73" fill="#f7931e"/><ellipse cx="155.34" cy="121.73" rx="12.04" ry="5.92" fill="#ad5802"/><ellipse cx="155.34" cy="137.19" rx="12.04" ry="5.92" fill="#f7931e"/><path d="M168.82,87.13c-2.54-1-6.06-4.5-9.13-4.39a36,36,0,0,0-1.86,9.13,82.89,82.89,0,0,0-.35,15.25q.11,1.7.28,3.39a2.7,2.7,0,0,0,.27,1q0,5.89,0,11.78a.37.37,0,0,0,.75,0q0-5.67,0-11.33a16.7,16.7,0,0,0,3.45-1.59,11.73,11.73,0,0,0,4.85-6.09c1.94-5.41.72-11.45,2.56-16.8C169.35,87.34,169.08,87.24,168.82,87.13Z" fill="#297600"/><path d="M163.61,78.27a9.43,9.43,0,0,0-3.44,3.52,5.9,5.9,0,0,0-.54,1l-.1.23h0a15.74,15.74,0,0,0-.58,1.87,2.33,2.33,0,0,1,1.28-1,3.18,3.18,0,0,1,2-.18,8.42,8.42,0,0,1,1.84,1c.86.52,1.69,1.1,2.53,1.64,4,2.53,9.3,2.79,12.38-.9,0-.15.08-.29.1-.44C179.55,82.49,172.43,73.14,163.61,78.27Z" fill="#5fad00"/><path d="M177.22,87l.5-.33a.34.34,0,0,0-.1-.29c-2.41-2.48-5-4.9-8.3-6.12a14.21,14.21,0,0,0-7.41-.73c-.27.31-.51.64-.75,1a12.87,12.87,0,0,1,8.52.71c2.91,1.24,5.23,3.47,7.41,5.71A.36.36,0,0,0,177.22,87Z" fill="#297600"/><path d="M136.82,92.42a10.05,10.05,0,0,0-5.38,9.64c.28,7.1,12,.17,15.1-5.83s3.59,2.56,3.59,2.56" fill="#297600"/><path d="M147.35,89.94a21.19,21.19,0,0,0-6.49.9,15.76,15.76,0,0,0-4,1.58,13,13,0,0,0,2.34,1.24,7.11,7.11,0,0,1,3.78,2.71,5.4,5.4,0,0,1,.45,1.07c.71,2.34.1,5.17,1.06,7.52s2.92,4.42,5.69,4.59c3.3.2,4.81-3,5.46-5.71s1.54-6.48.5-9.3C154.88,91.27,150.47,90.09,147.35,89.94Z" fill="#5fad00"/><path d="M151.69,101c-1.38-4.49-4.32-8.72-8.61-10.7h-.16l-.2.06-.78.2c5,1.86,8.14,6.79,9.43,11.83,1.64,6.45,1.09,13.43,1.1,20a.35.35,0,0,0,.69,0C153.14,115.4,153.79,107.84,151.69,101Z" fill="#297600"/><path d="M286.75,129.32l-5.6-3.77a2.86,2.86,0,0,0-3.24-.32L272,128.49a27.23,27.23,0,0,0-3.52-7.41h0c-2-2.75-4.66-4.85-8.33-4.69a11.39,11.39,0,0,0-5.55,1.79h0l0,0a19.66,19.66,0,0,0-6.44,7.21l-.19.35-.28.53-.29.57-.24.51-.23.5a36.32,36.32,0,0,0-3,13.8c0,1.13,0,2,0,2.31l-8.67,4.79a2.87,2.87,0,0,0-1.48,2.43l-1.33,42.16a2.83,2.83,0,0,0,1.14,2.38h0l0,0,.25.17,5.29,3.54.32-5-.1,0,41.35-23.55a2.87,2.87,0,0,0,1.45-2.5V131.57Zm-19.59,1.84-15.88,8.77c.93-3.46,1.91-7.36,2.43-10.17.62-3.28,4.56-5.49,8.22-6.86C264.66,124,266.29,128,267.17,131.16Z" fill="#68e1fd"/><path d="M286.75,129.32l-5.6-3.77a2.86,2.86,0,0,0-3.24-.32L272,128.49a27.23,27.23,0,0,0-3.52-7.41h0c-2-2.75-4.66-4.85-8.33-4.69a11.39,11.39,0,0,0-5.55,1.79h0l0,0a19.66,19.66,0,0,0-6.44,7.21l-.19.35-.28.53-.29.57-.24.51-.23.5a36.32,36.32,0,0,0-3,13.8c0,1.13,0,2,0,2.31l-8.67,4.79a2.87,2.87,0,0,0-1.48,2.43l-1.33,42.16a2.83,2.83,0,0,0,1.14,2.38h0l0,0,.25.17,5.29,3.54.32-5-.1,0,41.35-23.55a2.87,2.87,0,0,0,1.45-2.5V131.57Zm-19.59,1.84-15.88,8.77c.93-3.46,1.91-7.36,2.43-10.17.62-3.28,4.56-5.49,8.22-6.86C264.66,124,266.29,128,267.17,131.16Z" fill="#181816" opacity="0.38"/><path d="M240.77,152.46l42.65-23.55a2.87,2.87,0,0,1,4.26,2.52V172.1a2.87,2.87,0,0,1-1.45,2.5l-44,25a2.87,2.87,0,0,1-4.29-2.59l1.33-42.16A2.87,2.87,0,0,1,240.77,152.46Z" fill="#68e1fd"/><ellipse cx="265.5" cy="164.29" rx="7.13" ry="3.05" transform="translate(57.48 397.11) rotate(-79.97)" fill="#fff"/><path d="M255.7,146.23s-2.47-15.14,8.14-19c7.21-2.66,9.3,12.23,9.3,12.23l5.09-2.19s-2.78-17-13-16.56S247.93,136,249.2,149.76Z" fill="#68e1fd"/></g></g></svg>